ffmpeg started on 2026-03-22 at 16:43:40
Report written to "D:\Convert\FFMetrics\reports\ssim_report-6.txt"
Log level: 32
Command line:
ffmpeg -hide_banner -nostdin -r 24000/1001 -i "F:\\Convert\\files\\[DC] Make Heroine ga Oosugiru - 07_Telegram_HEVC(223).mkv" -r 24000/1001 -i "F:\\Convert\\files\\[DC] Make Heroine ga Oosugiru - 07_Telegram.mp4" -lavfi "[0:v]settb=AVTB,setpts=PTS-STARTPTS,format=pix_fmts=yuv420p10le,fps=24000/1001,scale=1920:1080:flags=lanczos:param0=3:out_range=limited:out_color_matrix=bt709:out_chroma_loc=left,setsar=1/1,setdar=(1920/1080)*(1/1),colorspace=format=yuv420p10:range=tv:primaries=bt709:trc=bt709:space=bt709:fast=0[main];[1:v]settb=AVTB,setpts=PTS-STARTPTS,format=pix_fmts=yuv420p,fps=24000/1001,scale=1920:1080:flags=lanczos:param0=3:out_range=limited:out_color_matrix=bt709:out_chroma_loc=left,setsar=1.000,setdar=1.778,colorspace=format=yuv420p:range=tv:primaries=bt709:trc=bt709:space=bt709:fast=0[ref];[main][ref]ssim=eof_action=endall:stats_file='D\\:/Convert/FFMetrics/logs/ssim_logfile-6.txt'" -f null -
Input #0, matroska,webm, from 'F:\Convert\files\[DC] Make Heroine ga Oosugiru - 07_Telegram_HEVC(223).mkv':
  Metadata:
    COMPATIBLE_BRANDS: isomiso2avc1mp41
    MAJOR_BRAND     : isom
    MINOR_VERSION   : 512
    ENCODER         : Lavf61.7.100
  Duration: 00:24:06.79, start: -0.021000, bitrate: 1170 kb/s
  Stream #0:0: Video: hevc (Main 10), yuv420p10le(tv, bt709, progressive), 1920x1080 [SAR 1:1 DAR 16:9], 23.98 fps, 23.98 tbr, 1k tbn (default)
      Metadata:
        HANDLER_NAME    : VideoHandler
        VENDOR_ID       : [0][0][0][0]
        ENCODER         : Lavc61.19.100 libx265
        BPS             : 973181
        DURATION        : 00:24:06.569708333
        NUMBER_OF_FRAMES: 34683
        NUMBER_OF_BYTES : 175971752
        _STATISTICS_WRITING_APP: mkvpropedit v94.0 ('Initiate') 64-bit
        _STATISTICS_WRITING_DATE_UTC: 2026-03-21 11:31:44
        _STATISTICS_TAGS: BPS DURATION NUMBER_OF_FRAMES NUMBER_OF_BYTES
  Stream #0:1: Audio: aac (LC), 48000 Hz, stereo, fltp (default)
      Metadata:
        HANDLER_NAME    : SoundHandler
        VENDOR_ID       : [0][0][0][0]
        ENCODER         : Lavc61.19.100 aac
        BPS             : 193194
        DURATION        : 00:24:06.784000000
        NUMBER_OF_FRAMES: 67819
        NUMBER_OF_BYTES : 34938755
        _STATISTICS_WRITING_APP: mkvpropedit v94.0 ('Initiate') 64-bit
        _STATISTICS_WRITING_DATE_UTC: 2026-03-21 11:31:44
        _STATISTICS_TAGS: BPS DURATION NUMBER_OF_FRAMES NUMBER_OF_BYTES
Input #1, mov,mp4,m4a,3gp,3g2,mj2, from 'F:\Convert\files\[DC] Make Heroine ga Oosugiru - 07_Telegram.mp4':
  Metadata:
    major_brand     : isom
    minor_version   : 512
    compatible_brands: isomiso2avc1mp41
    encoder         : Lavf60.16.100
  Duration: 00:24:06.74, start: 0.000000, bitrate: 3764 kb/s
  Stream #1:0[0x1](und): Video: h264 (High) (avc1 / 0x31637661), yuv420p(tv, bt709, progressive), 1920x1080 [SAR 1:1 DAR 16:9], 3616 kb/s, 23.98 fps, 23.98 tbr, 24k tbn (default)
      Metadata:
        handler_name    : VideoHandler
        vendor_id       : [0][0][0][0]
        encoder         : Lavc60.31.102 h264_qsv
  Stream #1:1[0x2](und): Audio: aac (HE-AACv2) (mp4a / 0x6134706D), 48000 Hz, stereo, fltp, 144 kb/s (default)
      Metadata:
        handler_name    : SoundHandler
        vendor_id       : [0][0][0][0]
Stream mapping:
  Stream #0:0 (hevc) -> settb:default
  Stream #1:0 (h264) -> settb:default
  ssim:default -> Stream #0:0 (wrapped_avframe)
  Stream #0:1 -> #0:1 (aac (native) -> pcm_s16le (native))
Output #0, null, to 'pipe:':
  Metadata:
    COMPATIBLE_BRANDS: isomiso2avc1mp41
    MAJOR_BRAND     : isom
    MINOR_VERSION   : 512
    encoder         : Lavf61.7.100
  Stream #0:0: Video: wrapped_avframe, yuv420p10le(tv, bt709, progressive), 1920x1080 [SAR 1:1 DAR 16:9], q=2-31, 200 kb/s, 23.98 fps, 23.98 tbn
      Metadata:
        encoder         : Lavc61.19.100 wrapped_avframe
  Stream #0:1: Audio: pcm_s16le, 48000 Hz, stereo, s16, 1536 kb/s (default)
      Metadata:
        HANDLER_NAME    : SoundHandler
        VENDOR_ID       : [0][0][0][0]
        _STATISTICS_TAGS: BPS DURATION NUMBER_OF_FRAMES NUMBER_OF_BYTES
        BPS             : 193194
        DURATION        : 00:24:06.784000000
        NUMBER_OF_FRAMES: 67819
        NUMBER_OF_BYTES : 34938755
        _STATISTICS_WRITING_APP: mkvpropedit v94.0 ('Initiate') 64-bit
        _STATISTICS_WRITING_DATE_UTC: 2026-03-21 11:31:44
        encoder         : Lavc61.19.100 pcm_s16le
frame=  127 fps=0.0 q=-0.0 size=N/A time=00:00:05.29 bitrate=N/A speed=10.5x    frame=  298 fps=293 q=-0.0 size=N/A time=00:00:12.42 bitrate=N/A speed=12.2x    frame=  491 fps=318 q=-0.0 size=N/A time=00:00:20.47 bitrate=N/A speed=13.2x    frame=  674 fps=328 q=-0.0 size=N/A time=00:00:28.11 bitrate=N/A speed=13.7x    frame=  861 fps=335 q=-0.0 size=N/A time=00:00:35.91 bitrate=N/A speed=  14x    frame=  996 fps=322 q=-0.0 size=N/A time=00:00:41.54 bitrate=N/A speed=13.4x    frame= 1151 fps=319 q=-0.0 size=N/A time=00:00:48.00 bitrate=N/A speed=13.3x    frame= 1310 fps=318 q=-0.0 size=N/A time=00:00:54.63 bitrate=N/A speed=13.3x    frame= 1473 fps=318 q=-0.0 size=N/A time=00:01:01.43 bitrate=N/A speed=13.3x    frame= 1618 fps=314 q=-0.0 size=N/A time=00:01:07.48 bitrate=N/A speed=13.1x    frame= 1769 fps=312 q=-0.0 size=N/A time=00:01:13.78 bitrate=N/A speed=  13x    frame= 1922 fps=311 q=-0.0 size=N/A time=00:01:20.16 bitrate=N/A speed=  13x    frame= 2063 fps=308 q=-0.0 size=N/A time=00:01:26.04 bitrate=N/A speed=12.9x    frame= 2193 fps=304 q=-0.0 size=N/A time=00:01:31.46 bitrate=N/A speed=12.7x    frame= 2344 fps=303 q=-0.0 size=N/A time=00:01:37.76 bitrate=N/A speed=12.7x    frame= 2474 fps=300 q=-0.0 size=N/A time=00:01:43.18 bitrate=N/A speed=12.5x    frame= 2604 fps=298 q=-0.0 size=N/A time=00:01:48.60 bitrate=N/A speed=12.4x    frame= 2782 fps=300 q=-0.0 size=N/A time=00:01:56.03 bitrate=N/A speed=12.5x    frame= 2946 fps=301 q=-0.0 size=N/A time=00:02:02.87 bitrate=N/A speed=12.5x    frame= 3128 fps=304 q=-0.0 size=N/A time=00:02:10.46 bitrate=N/A speed=12.7x    frame= 3319 fps=306 q=-0.0 size=N/A time=00:02:18.42 bitrate=N/A speed=12.8x    frame= 3513 fps=309 q=-0.0 size=N/A time=00:02:26.52 bitrate=N/A speed=12.9x    frame= 3697 fps=312 q=-0.0 size=N/A time=00:02:34.19 bitrate=N/A speed=  13x    frame= 3891 fps=314 q=-0.0 size=N/A time=00:02:42.28 bitrate=N/A speed=13.1x    frame= 4074 fps=316 q=-0.0 size=N/A time=00:02:49.91 bitrate=N/A speed=13.2x    frame= 4257 fps=317 q=-0.0 size=N/A time=00:02:57.55 bitrate=N/A speed=13.2x    frame= 4444 fps=319 q=-0.0 size=N/A time=00:03:05.35 bitrate=N/A speed=13.3x    frame= 4633 fps=321 q=-0.0 size=N/A time=00:03:13.23 bitrate=N/A speed=13.4x    frame= 4821 fps=322 q=-0.0 size=N/A time=00:03:21.07 bitrate=N/A speed=13.4x    frame= 4998 fps=323 q=-0.0 size=N/A time=00:03:28.45 bitrate=N/A speed=13.5x    frame= 5186 fps=324 q=-0.0 size=N/A time=00:03:36.29 bitrate=N/A speed=13.5x    frame= 5374 fps=325 q=-0.0 size=N/A time=00:03:44.14 bitrate=N/A speed=13.6x    frame= 5560 fps=327 q=-0.0 size=N/A time=00:03:51.89 bitrate=N/A speed=13.6x    frame= 5743 fps=328 q=-0.0 size=N/A time=00:03:59.53 bitrate=N/A speed=13.7x    frame= 5932 fps=328 q=-0.0 size=N/A time=00:04:07.41 bitrate=N/A speed=13.7x    frame= 6114 fps=329 q=-0.0 size=N/A time=00:04:15.00 bitrate=N/A speed=13.7x    frame= 6296 fps=330 q=-0.0 size=N/A time=00:04:22.59 bitrate=N/A speed=13.8x    frame= 6487 fps=331 q=-0.0 size=N/A time=00:04:30.56 bitrate=N/A speed=13.8x    frame= 6670 fps=332 q=-0.0 size=N/A time=00:04:38.19 bitrate=N/A speed=13.8x    frame= 6859 fps=332 q=-0.0 size=N/A time=00:04:46.07 bitrate=N/A speed=13.9x    frame= 7042 fps=333 q=-0.0 size=N/A time=00:04:53.71 bitrate=N/A speed=13.9x    frame= 7225 fps=333 q=-0.0 size=N/A time=00:05:01.34 bitrate=N/A speed=13.9x    frame= 7409 fps=334 q=-0.0 size=N/A time=00:05:09.01 bitrate=N/A speed=13.9x    frame= 7589 fps=334 q=-0.0 size=N/A time=00:05:16.52 bitrate=N/A speed=13.9x    frame= 7772 fps=335 q=-0.0 size=N/A time=00:05:24.15 bitrate=N/A speed=  14x    frame= 7949 fps=335 q=-0.0 size=N/A time=00:05:31.53 bitrate=N/A speed=  14x    frame= 8138 fps=336 q=-0.0 size=N/A time=00:05:39.42 bitrate=N/A speed=  14x    frame= 8321 fps=336 q=-0.0 size=N/A time=00:05:47.05 bitrate=N/A speed=  14x    frame= 8505 fps=336 q=-0.0 size=N/A time=00:05:54.72 bitrate=N/A speed=  14x    frame= 8698 fps=337 q=-0.0 size=N/A time=00:06:02.77 bitrate=N/A speed=14.1x    frame= 8885 fps=338 q=-0.0 size=N/A time=00:06:10.57 bitrate=N/A speed=14.1x    frame= 9071 fps=338 q=-0.0 size=N/A time=00:06:18.33 bitrate=N/A speed=14.1x    frame= 9251 fps=338 q=-0.0 size=N/A time=00:06:25.84 bitrate=N/A speed=14.1x    frame= 9437 fps=339 q=-0.0 size=N/A time=00:06:33.60 bitrate=N/A speed=14.1x    frame= 9625 fps=339 q=-0.0 size=N/A time=00:06:41.44 bitrate=N/A speed=14.1x    frame= 9808 fps=339 q=-0.0 size=N/A time=00:06:49.07 bitrate=N/A speed=14.2x    frame=10001 fps=340 q=-0.0 size=N/A time=00:06:57.12 bitrate=N/A speed=14.2x    frame=10186 fps=340 q=-0.0 size=N/A time=00:07:04.84 bitrate=N/A speed=14.2x    frame=10369 fps=340 q=-0.0 size=N/A time=00:07:12.47 bitrate=N/A speed=14.2x    frame=10557 fps=341 q=-0.0 size=N/A time=00:07:20.31 bitrate=N/A speed=14.2x    frame=10737 fps=341 q=-0.0 size=N/A time=00:07:27.82 bitrate=N/A speed=14.2x    frame=10922 fps=341 q=-0.0 size=N/A time=00:07:35.53 bitrate=N/A speed=14.2x    frame=11112 fps=342 q=-0.0 size=N/A time=00:07:43.46 bitrate=N/A speed=14.2x    frame=11286 fps=342 q=-0.0 size=N/A time=00:07:50.72 bitrate=N/A speed=14.2x    frame=11471 fps=342 q=-0.0 size=N/A time=00:07:58.43 bitrate=N/A speed=14.3x    frame=11658 fps=342 q=-0.0 size=N/A time=00:08:06.23 bitrate=N/A speed=14.3x    frame=11842 fps=342 q=-0.0 size=N/A time=00:08:13.91 bitrate=N/A speed=14.3x    frame=12028 fps=343 q=-0.0 size=N/A time=00:08:21.66 bitrate=N/A speed=14.3x    frame=12211 fps=343 q=-0.0 size=N/A time=00:08:29.30 bitrate=N/A speed=14.3x    frame=12400 fps=343 q=-0.0 size=N/A time=00:08:37.18 bitrate=N/A speed=14.3x    frame=12588 fps=343 q=-0.0 size=N/A time=00:08:45.02 bitrate=N/A speed=14.3x    frame=12776 fps=344 q=-0.0 size=N/A time=00:08:52.86 bitrate=N/A speed=14.3x    frame=12957 fps=344 q=-0.0 size=N/A time=00:09:00.41 bitrate=N/A speed=14.3x    frame=13152 fps=344 q=-0.0 size=N/A time=00:09:08.54 bitrate=N/A speed=14.4x    frame=13326 fps=344 q=-0.0 size=N/A time=00:09:15.80 bitrate=N/A speed=14.4x    frame=13512 fps=344 q=-0.0 size=N/A time=00:09:23.56 bitrate=N/A speed=14.4x    frame=13699 fps=345 q=-0.0 size=N/A time=00:09:31.36 bitrate=N/A speed=14.4x    frame=13882 fps=345 q=-0.0 size=N/A time=00:09:38.99 bitrate=N/A speed=14.4x    frame=14068 fps=345 q=-0.0 size=N/A time=00:09:46.75 bitrate=N/A speed=14.4x    frame=14239 fps=345 q=-0.0 size=N/A time=00:09:53.88 bitrate=N/A speed=14.4x    frame=14427 fps=345 q=-0.0 size=N/A time=00:10:01.72 bitrate=N/A speed=14.4x    frame=14611 fps=345 q=-0.0 size=N/A time=00:10:09.40 bitrate=N/A speed=14.4x    frame=14788 fps=345 q=-0.0 size=N/A time=00:10:16.78 bitrate=N/A speed=14.4x    frame=14979 fps=345 q=-0.0 size=N/A time=00:10:24.74 bitrate=N/A speed=14.4x    frame=15150 fps=345 q=-0.0 size=N/A time=00:10:31.88 bitrate=N/A speed=14.4x    frame=15329 fps=345 q=-0.0 size=N/A time=00:10:39.34 bitrate=N/A speed=14.4x    frame=15504 fps=345 q=-0.0 size=N/A time=00:10:46.64 bitrate=N/A speed=14.4x    frame=15688 fps=345 q=-0.0 size=N/A time=00:10:54.32 bitrate=N/A speed=14.4x    frame=15884 fps=346 q=-0.0 size=N/A time=00:11:02.49 bitrate=N/A speed=14.4x    frame=16066 fps=346 q=-0.0 size=N/A time=00:11:10.08 bitrate=N/A speed=14.4x    frame=16252 fps=346 q=-0.0 size=N/A time=00:11:17.84 bitrate=N/A speed=14.4x    frame=16440 fps=346 q=-0.0 size=N/A time=00:11:25.68 bitrate=N/A speed=14.4x    frame=16614 fps=346 q=-0.0 size=N/A time=00:11:32.94 bitrate=N/A speed=14.4x    frame=16799 fps=346 q=-0.0 size=N/A time=00:11:40.65 bitrate=N/A speed=14.4x    frame=16988 fps=346 q=-0.0 size=N/A time=00:11:48.54 bitrate=N/A speed=14.4x    frame=17175 fps=347 q=-0.0 size=N/A time=00:11:56.34 bitrate=N/A speed=14.5x    frame=17361 fps=347 q=-0.0 size=N/A time=00:12:04.09 bitrate=N/A speed=14.5x    frame=17544 fps=347 q=-0.0 size=N/A time=00:12:11.73 bitrate=N/A speed=14.5x    frame=17728 fps=347 q=-0.0 size=N/A time=00:12:19.40 bitrate=N/A speed=14.5x    frame=17905 fps=347 q=-0.0 size=N/A time=00:12:26.78 bitrate=N/A speed=14.5x    frame=18092 fps=347 q=-0.0 size=N/A time=00:12:34.58 bitrate=N/A speed=14.5x    frame=18270 fps=347 q=-0.0 size=N/A time=00:12:42.01 bitrate=N/A speed=14.5x    frame=18454 fps=347 q=-0.0 size=N/A time=00:12:49.68 bitrate=N/A speed=14.5x    frame=18640 fps=347 q=-0.0 size=N/A time=00:12:57.44 bitrate=N/A speed=14.5x    frame=18825 fps=347 q=-0.0 size=N/A time=00:13:05.15 bitrate=N/A speed=14.5x    frame=19012 fps=347 q=-0.0 size=N/A time=00:13:12.95 bitrate=N/A speed=14.5x    frame=19198 fps=348 q=-0.0 size=N/A time=00:13:20.71 bitrate=N/A speed=14.5x    frame=19387 fps=348 q=-0.0 size=N/A time=00:13:28.59 bitrate=N/A speed=14.5x    frame=19574 fps=348 q=-0.0 size=N/A time=00:13:36.39 bitrate=N/A speed=14.5x    frame=19760 fps=348 q=-0.0 size=N/A time=00:13:44.15 bitrate=N/A speed=14.5x    frame=19944 fps=348 q=-0.0 size=N/A time=00:13:51.83 bitrate=N/A speed=14.5x    frame=20136 fps=348 q=-0.0 size=N/A time=00:13:59.83 bitrate=N/A speed=14.5x    frame=20323 fps=348 q=-0.0 size=N/A time=00:14:07.63 bitrate=N/A speed=14.5x    frame=20502 fps=348 q=-0.0 size=N/A time=00:14:15.10 bitrate=N/A speed=14.5x    frame=20670 fps=348 q=-0.0 size=N/A time=00:14:22.11 bitrate=N/A speed=14.5x    frame=20862 fps=348 q=-0.0 size=N/A time=00:14:30.11 bitrate=N/A speed=14.5x    frame=21044 fps=349 q=-0.0 size=N/A time=00:14:37.71 bitrate=N/A speed=14.5x    frame=21234 fps=349 q=-0.0 size=N/A time=00:14:45.63 bitrate=N/A speed=14.5x    frame=21417 fps=349 q=-0.0 size=N/A time=00:14:53.26 bitrate=N/A speed=14.5x    frame=21600 fps=349 q=-0.0 size=N/A time=00:15:00.90 bitrate=N/A speed=14.5x    frame=21787 fps=349 q=-0.0 size=N/A time=00:15:08.69 bitrate=N/A speed=14.6x    frame=21973 fps=349 q=-0.0 size=N/A time=00:15:16.45 bitrate=N/A speed=14.6x    frame=22158 fps=349 q=-0.0 size=N/A time=00:15:24.17 bitrate=N/A speed=14.6x    frame=22347 fps=349 q=-0.0 size=N/A time=00:15:32.05 bitrate=N/A speed=14.6x    frame=22531 fps=349 q=-0.0 size=N/A time=00:15:39.73 bitrate=N/A speed=14.6x    frame=22715 fps=349 q=-0.0 size=N/A time=00:15:47.40 bitrate=N/A speed=14.6x    frame=22894 fps=349 q=-0.0 size=N/A time=00:15:54.87 bitrate=N/A speed=14.6x    frame=23084 fps=349 q=-0.0 size=N/A time=00:16:02.79 bitrate=N/A speed=14.6x    frame=23269 fps=350 q=-0.0 size=N/A time=00:16:10.51 bitrate=N/A speed=14.6x    frame=23454 fps=350 q=-0.0 size=N/A time=00:16:18.22 bitrate=N/A speed=14.6x    frame=23643 fps=350 q=-0.0 size=N/A time=00:16:26.11 bitrate=N/A speed=14.6x    frame=23833 fps=350 q=-0.0 size=N/A time=00:16:34.03 bitrate=N/A speed=14.6x    frame=24016 fps=350 q=-0.0 size=N/A time=00:16:41.66 bitrate=N/A speed=14.6x    frame=24201 fps=350 q=-0.0 size=N/A time=00:16:49.38 bitrate=N/A speed=14.6x    frame=24394 fps=350 q=-0.0 size=N/A time=00:16:57.43 bitrate=N/A speed=14.6x    frame=24581 fps=350 q=-0.0 size=N/A time=00:17:05.23 bitrate=N/A speed=14.6x    frame=24759 fps=350 q=-0.0 size=N/A time=00:17:12.65 bitrate=N/A speed=14.6x    frame=24950 fps=350 q=-0.0 size=N/A time=00:17:20.62 bitrate=N/A speed=14.6x    frame=25140 fps=350 q=-0.0 size=N/A time=00:17:28.54 bitrate=N/A speed=14.6x    frame=25329 fps=351 q=-0.0 size=N/A time=00:17:36.43 bitrate=N/A speed=14.6x    frame=25510 fps=351 q=-0.0 size=N/A time=00:17:43.97 bitrate=N/A speed=14.6x    frame=25692 fps=351 q=-0.0 size=N/A time=00:17:51.57 bitrate=N/A speed=14.6x    frame=25884 fps=351 q=-0.0 size=N/A time=00:17:59.57 bitrate=N/A speed=14.6x    frame=26070 fps=351 q=-0.0 size=N/A time=00:18:07.33 bitrate=N/A speed=14.6x    frame=26259 fps=351 q=-0.0 size=N/A time=00:18:15.21 bitrate=N/A speed=14.6x    frame=26445 fps=351 q=-0.0 size=N/A time=00:18:22.97 bitrate=N/A speed=14.6x    frame=26627 fps=351 q=-0.0 size=N/A time=00:18:30.56 bitrate=N/A speed=14.6x    frame=26814 fps=351 q=-0.0 size=N/A time=00:18:38.36 bitrate=N/A speed=14.6x    frame=26995 fps=351 q=-0.0 size=N/A time=00:18:45.91 bitrate=N/A speed=14.6x    frame=27175 fps=351 q=-0.0 size=N/A time=00:18:53.42 bitrate=N/A speed=14.6x    frame=27353 fps=351 q=-0.0 size=N/A time=00:19:00.84 bitrate=N/A speed=14.6x    frame=27541 fps=351 q=-0.0 size=N/A time=00:19:08.68 bitrate=N/A speed=14.6x    frame=27722 fps=351 q=-0.0 size=N/A time=00:19:16.23 bitrate=N/A speed=14.6x    frame=27905 fps=351 q=-0.0 size=N/A time=00:19:23.87 bitrate=N/A speed=14.6x    frame=28086 fps=351 q=-0.0 size=N/A time=00:19:31.42 bitrate=N/A speed=14.6x    frame=28275 fps=351 q=-0.0 size=N/A time=00:19:39.30 bitrate=N/A speed=14.6x    frame=28450 fps=351 q=-0.0 size=N/A time=00:19:46.60 bitrate=N/A speed=14.6x    frame=28642 fps=351 q=-0.0 size=N/A time=00:19:54.61 bitrate=N/A speed=14.7x    frame=28814 fps=351 q=-0.0 size=N/A time=00:20:01.78 bitrate=N/A speed=14.6x    frame=28982 fps=351 q=-0.0 size=N/A time=00:20:08.79 bitrate=N/A speed=14.6x    frame=29158 fps=351 q=-0.0 size=N/A time=00:20:16.13 bitrate=N/A speed=14.6x    frame=29331 fps=351 q=-0.0 size=N/A time=00:20:23.34 bitrate=N/A speed=14.6x    frame=29497 fps=351 q=-0.0 size=N/A time=00:20:30.27 bitrate=N/A speed=14.6x    frame=29675 fps=351 q=-0.0 size=N/A time=00:20:37.69 bitrate=N/A speed=14.6x    frame=29844 fps=350 q=-0.0 size=N/A time=00:20:44.74 bitrate=N/A speed=14.6x    frame=30005 fps=350 q=-0.0 size=N/A time=00:20:51.45 bitrate=N/A speed=14.6x    frame=30181 fps=350 q=-0.0 size=N/A time=00:20:58.79 bitrate=N/A speed=14.6x    frame=30362 fps=350 q=-0.0 size=N/A time=00:21:06.34 bitrate=N/A speed=14.6x    frame=30545 fps=350 q=-0.0 size=N/A time=00:21:13.98 bitrate=N/A speed=14.6x    frame=30729 fps=350 q=-0.0 size=N/A time=00:21:21.65 bitrate=N/A speed=14.6x    frame=30919 fps=350 q=-0.0 size=N/A time=00:21:29.57 bitrate=N/A speed=14.6x    frame=31110 fps=350 q=-0.0 size=N/A time=00:21:37.54 bitrate=N/A speed=14.6x    frame=31285 fps=350 q=-0.0 size=N/A time=00:21:44.84 bitrate=N/A speed=14.6x    frame=31465 fps=350 q=-0.0 size=N/A time=00:21:52.35 bitrate=N/A speed=14.6x    frame=31647 fps=350 q=-0.0 size=N/A time=00:21:59.94 bitrate=N/A speed=14.6x    frame=31825 fps=350 q=-0.0 size=N/A time=00:22:07.36 bitrate=N/A speed=14.6x    frame=31997 fps=350 q=-0.0 size=N/A time=00:22:14.54 bitrate=N/A speed=14.6x    frame=32173 fps=350 q=-0.0 size=N/A time=00:22:21.88 bitrate=N/A speed=14.6x    frame=32357 fps=350 q=-0.0 size=N/A time=00:22:29.55 bitrate=N/A speed=14.6x    frame=32550 fps=350 q=-0.0 size=N/A time=00:22:37.60 bitrate=N/A speed=14.6x    frame=32698 fps=350 q=-0.0 size=N/A time=00:22:43.77 bitrate=N/A speed=14.6x    frame=32845 fps=350 q=-0.0 size=N/A time=00:22:49.91 bitrate=N/A speed=14.6x    frame=33017 fps=350 q=-0.0 size=N/A time=00:22:57.08 bitrate=N/A speed=14.6x    frame=33201 fps=350 q=-0.0 size=N/A time=00:23:04.75 bitrate=N/A speed=14.6x    frame=33374 fps=350 q=-0.0 size=N/A time=00:23:11.97 bitrate=N/A speed=14.6x    frame=33533 fps=349 q=-0.0 size=N/A time=00:23:18.60 bitrate=N/A speed=14.6x    frame=33675 fps=349 q=-0.0 size=N/A time=00:23:24.52 bitrate=N/A speed=14.6x    frame=33806 fps=348 q=-0.0 size=N/A time=00:23:29.99 bitrate=N/A speed=14.5x    frame=33936 fps=348 q=-0.0 size=N/A time=00:23:35.41 bitrate=N/A speed=14.5x    frame=34096 fps=348 q=-0.0 size=N/A time=00:23:42.08 bitrate=N/A speed=14.5x    frame=34252 fps=348 q=-0.0 size=N/A time=00:23:48.59 bitrate=N/A speed=14.5x    frame=34379 fps=347 q=-0.0 size=N/A time=00:23:53.89 bitrate=N/A speed=14.5x    frame=34523 fps=347 q=-0.0 size=N/A time=00:23:59.89 bitrate=N/A speed=14.5x    [Parsed_ssim_16 @ 0000014731e88700] SSIM Y:0.994831 (22.865974) U:0.994505 (22.600659) V:0.994171 (22.343776) All:0.994667 (22.730044)
[out#0/null @ 000001472aafe740] video:14903KiB audio:271276KiB subtitle:0KiB other streams:0KiB global headers:0KiB muxing overhead: unknown
frame=34683 fps=347 q=-0.0 Lsize=N/A time=00:24:06.57 bitrate=N/A speed=14.5x    
